<?xml version="1.0" standalone="no"?>
<!DOCTYPE svg PUBLIC "-//W3C//DTD SVG 20010904//EN"
 "http://www.w3.org/TR/2001/REC-SVG-20010904/DTD/svg10.dtd">
<svg version="1.0" xmlns="http://www.w3.org/2000/svg"
 width="640.000000pt" height="640.000000pt" viewBox="0 0 640.000000 640.000000"
 preserveAspectRatio="xMidYMid meet">
<metadata>
Created by potrace 1.11, written by Peter Selinger 2001-2013
</metadata>
<g transform="translate(0.000000,640.000000) scale(0.100000,-0.100000)"
fill="#000000" stroke="none">
<path d="M2076 5831 c-52 -14 -92 -17 -159 -13 -168 9 -318 -39 -468 -151
-113 -84 -260 -252 -243 -278 3 -5 0 -8 -7 -7 -20 5 -80 -91 -74 -116 4 -13 3
-16 -2 -9 -14 19 -72 -127 -89 -221 -8 -44 -14 -99 -14 -121 0 -66 36 -242 75
-375 54 -180 94 -348 95 -397 0 -34 4 -43 18 -43 39 0 41 11 22 122 -18 105
-28 144 -76 303 -105 348 -100 524 22 738 25 43 42 82 39 88 -4 5 -2 8 3 7 14
-4 113 123 105 136 -3 6 -3 8 2 4 4 -4 43 26 86 66 92 87 194 149 299 181 77
24 199 37 201 21 1 -5 -19 -25 -44 -45 -25 -20 -69 -65 -97 -101 -59 -73 -134
-215 -124 -232 4 -6 3 -8 -4 -4 -11 7 -15 -4 -54 -139 -19 -67 -22 -103 -22
-220 0 -163 15 -234 95 -465 66 -188 125 -385 132 -435 3 -22 12 -80 20 -130
9 -49 18 -129 22 -177 5 -79 4 -88 -15 -106 -31 -29 -24 -77 10 -77 18 0 30 9
43 35 15 29 17 53 14 140 -5 135 -24 284 -41 335 -8 22 -18 56 -21 75 -9 44
-68 235 -100 320 -41 109 -95 303 -95 340 0 27 -3 32 -10 20 -8 -10 -9 3 -4
46 4 41 3 64 -5 68 -6 4 -11 24 -11 44 0 29 3 34 11 22 8 -11 9 -7 5 18 -3 17
-2 32 3 32 5 0 12 26 16 58 10 82 70 234 132 332 54 86 149 182 210 213 37 20
79 22 89 6 3 -6 27 -20 51 -31 110 -49 241 -217 312 -402 77 -201 75 -333 -9
-656 -35 -133 -50 -204 -65 -310 -19 -135 -19 -139 3 -135 9 2 20 4 23 4 3 1
9 31 13 69 10 97 33 217 73 371 72 281 80 411 38 574 -59 226 -192 417 -365
526 l-65 41 40 0 c22 0 59 5 83 10 33 8 55 7 95 -5 29 -8 67 -17 85 -19 18 -2
58 -19 90 -38 31 -20 67 -39 80 -43 46 -14 237 -219 314 -337 80 -122 89 -139
124 -240 27 -81 33 -219 15 -347 -7 -46 -10 -90 -7 -98 3 -8 2 -12 -3 -9 -12
8 -35 -146 -26 -174 5 -14 3 -20 -3 -16 -16 10 -26 -151 -19 -318 l6 -148 -37
-57 c-21 -31 -50 -81 -65 -111 -108 -225 -106 -317 17 -667 39 -112 70 -248
61 -263 -3 -6 -16 -11 -28 -11 -17 -1 -18 -2 -4 -6 9 -2 18 -13 19 -24 1 -10
3 -34 5 -51 1 -18 3 -46 4 -63 0 -16 6 -33 12 -37 9 -6 9 -8 0 -8 -8 0 -13
-12 -12 -27 l1 -28 8 25 c6 18 8 9 8 -35 0 -45 -2 -52 -7 -30 l-7 30 -5 -33
c-4 -20 -1 -36 8 -43 35 -30 2 -68 -65 -76 -37 -4 -56 0 -84 17 -20 12 -43 20
-50 19 -46 -6 -87 2 -91 18 -3 10 -5 0 -6 -21 -2 -61 -14 -33 -21 47 -5 69 -6
65 -19 -88 -14 -180 -17 -197 -31 -175 -8 13 -13 13 -31 2 -12 -8 -46 -16 -75
-19 -46 -5 -54 -3 -54 11 0 12 -10 16 -40 16 -23 0 -40 -5 -40 -11 0 -7 -7 -8
-17 -4 -19 8 -45 12 -105 14 -27 1 -38 6 -38 16 0 9 -9 15 -24 15 -13 0 -31 3
-40 6 -12 4 -16 0 -16 -15 0 -19 -6 -21 -50 -21 -27 0 -50 -4 -50 -10 0 -15
-36 -12 -52 3 -33 34 -124 61 -151 46 -11 -7 -21 -2 -36 17 -18 23 -27 26 -59
22 -32 -5 -40 -2 -48 16 -5 11 -19 22 -32 24 -12 2 -28 12 -35 23 -6 10 -20
19 -29 19 -10 0 -18 6 -19 13 0 6 -4 3 -9 -8 -8 -18 -9 -18 -9 -2 -1 10 -5 15
-11 12 -6 -4 -10 6 -11 22 l-1 28 -7 -25 c-16 -52 -21 106 -27 822 l-6 726
-42 4 c-58 4 -88 -1 -79 -15 12 -20 12 -37 0 -37 -8 0 -8 -3 1 -8 10 -7 10
-15 1 -38 -7 -16 -13 -33 -13 -39 -2 -19 -56 -17 -82 4 -15 12 -24 21 -20 21
4 0 2 9 -4 20 -7 13 -21 20 -40 20 -17 0 -30 5 -30 10 0 6 -3 9 -7 8 -14 -3
-63 14 -63 22 0 4 10 12 23 18 18 9 5 11 -65 11 l-88 1 0 -43 c0 -24 -3 -47
-7 -51 -4 -3 -8 -37 -9 -74 -2 -81 -12 -170 -19 -182 -5 -8 -9 -89 -35 -675
-14 -339 -39 -775 -55 -990 -21 -274 -54 -774 -57 -863 l-3 -74 85 -39 c196
-90 585 -259 595 -259 28 0 585 220 610 240 7 6 15 7 18 3 4 -3 7 -1 7 6 0 7
4 10 9 6 5 -3 12 -1 16 5 4 6 11 8 16 5 5 -4 9 -1 9 5 0 6 4 9 9 5 5 -3 12 -1
16 5 4 6 11 8 16 5 5 -4 9 -1 9 6 0 7 3 10 6 6 7 -7 112 31 165 59 19 10 41
19 50 21 9 1 38 12 64 23 26 11 50 18 53 15 5 -5 -17 -300 -40 -523 -10 -92
-10 -115 1 -121 7 -5 243 -9 525 -10 281 -1 579 -6 661 -11 83 -5 370 -12 639
-15 l489 -6 -7 53 c-15 110 -44 413 -40 417 6 6 81 -20 228 -80 65 -27 122
-46 127 -43 5 3 9 1 9 -5 0 -5 13 -12 28 -16 21 -4 55 7 137 46 61 28 142 64
180 79 39 16 115 49 170 74 99 45 100 46 98 78 -12 163 -24 381 -33 573 -15
336 -35 638 -38 580 -2 -27 -9 -56 -15 -64 -9 -12 -9 -13 0 -7 10 5 11 -1 7
-26 -9 -53 -11 -55 -42 -50 -22 3 -34 12 -43 34 -7 16 -17 35 -24 42 -26 25
-58 148 -76 290 -11 82 -26 172 -33 200 -8 28 -17 76 -21 106 -10 92 -25 161
-50 240 -14 41 -36 112 -50 158 -14 45 -33 99 -43 120 -11 20 -24 59 -31 85
-6 27 -19 59 -27 72 -9 13 -13 29 -9 35 3 5 -1 10 -11 10 -12 0 -15 -6 -12
-25 3 -14 1 -28 -3 -31 -5 -3 -9 -157 -10 -342 -2 -982 -18 -2048 -32 -2070
-11 -16 -27 -6 -27 17 0 13 -9 17 -36 18 -42 1 -84 21 -84 39 0 7 -10 21 -22
31 -13 10 -32 35 -42 56 -12 22 -26 37 -38 37 -10 0 -18 -4 -18 -10 0 -5 -5
-10 -11 -10 -6 0 -8 8 -4 19 4 14 0 21 -15 26 -11 3 -20 12 -21 18 0 7 -4 3
-9 -8 l-9 -20 0 20 c-1 17 -3 18 -12 5 -8 -11 -9 -8 -4 13 7 32 -1 67 -16 67
-5 0 -9 -8 -10 -17 -1 -10 -7 18 -14 62 -14 84 -30 332 -40 625 -4 96 -13 270
-21 385 -8 116 -17 253 -20 305 -8 150 6 135 -136 132 l-124 -3 -2 37 c-2 21
-6 42 -9 48 -4 6 0 5 9 -2 9 -7 51 -21 92 -31 l76 -18 0 22 c0 12 -3 37 -6 54
l-6 31 -119 0 -119 0 0 28 c0 31 30 132 91 307 37 109 41 129 42 225 1 93 -2
112 -26 170 -15 36 -44 89 -64 118 -21 31 -44 82 -54 120 -9 37 -29 110 -43
162 -76 272 -24 507 153 694 31 32 49 55 41 50 -13 -7 -13 -6 -1 9 15 19 26
23 15 6 -4 -7 -3 -10 2 -7 44 20 64 33 64 40 0 5 5 6 10 3 6 -3 10 -2 10 3 0
5 -10 12 -22 16 -17 4 -38 -5 -76 -31 -60 -41 -147 -137 -138 -152 4 -5 1 -13
-5 -17 -8 -4 -9 -3 -5 4 4 7 5 12 2 12 -15 0 -90 -177 -100 -235 -1 -5 -5 -15
-9 -22 -14 -23 -16 -193 -2 -246 7 -29 11 -55 9 -58 -2 -4 6 -38 18 -76 12
-37 21 -71 20 -75 -1 -4 3 -19 8 -33 5 -14 8 -25 5 -25 -2 0 -27 24 -55 54
-97 103 -310 225 -392 226 -26 0 -28 3 -28 40 0 21 11 69 24 106 14 37 22 73
19 78 -3 6 -3 8 2 4 4 -4 25 22 46 57 44 77 149 207 190 237 15 12 25 26 22
31 -3 6 -1 7 5 3 6 -3 14 -1 19 6 4 7 20 19 35 27 15 8 25 17 23 21 -3 5 2 11
11 14 8 3 13 2 10 -2 -3 -5 14 1 38 12 27 13 39 24 32 29 -6 5 1 7 16 4 15 -2
25 0 22 4 -3 5 16 9 43 10 41 1 44 2 23 10 -17 6 -4 7 44 5 42 -2 63 -1 55 5
-22 14 -7 11 57 -12 32 -11 66 -21 74 -21 22 -1 134 -83 181 -131 100 -106
200 -336 202 -472 2 -79 -12 -181 -32 -239 -12 -33 -21 -67 -21 -76 0 -10 -12
-44 -26 -76 -14 -32 -27 -68 -29 -79 -1 -11 -5 -27 -8 -35 -2 -8 -12 -35 -21
-60 -8 -25 -17 -61 -20 -80 -2 -19 -11 -64 -20 -100 -20 -84 -30 -309 -16
-360 10 -37 36 -58 52 -42 4 4 3 23 -3 42 -22 67 -1 332 36 480 13 52 44 154
69 225 64 185 78 254 77 369 -1 153 -55 318 -149 451 -42 61 -147 160 -184
176 -16 6 -28 15 -28 20 0 12 66 22 98 15 15 -4 48 -11 74 -16 50 -9 188 -72
213 -97 8 -8 39 -32 68 -54 28 -22 52 -43 52 -48 0 -5 25 -34 55 -65 30 -31
54 -59 54 -64 -1 -4 16 -33 38 -64 50 -72 86 -171 94 -263 6 -72 -4 -121 -70
-360 -26 -93 -56 -264 -56 -321 0 -23 5 -33 19 -37 24 -6 31 16 31 93 0 68 21
170 67 325 19 66 40 163 46 215 9 85 8 104 -11 176 -60 238 -305 504 -537 584
-78 27 -190 36 -250 21 -37 -9 -64 -9 -121 1 -59 9 -90 9 -147 0 -106 -18
-287 -108 -271 -134 4 -6 2 -8 -3 -5 -13 8 -49 -20 -113 -87 -55 -58 -122
-147 -99 -131 8 6 3 -1 -12 -15 -31 -28 -62 -86 -54 -99 2 -5 -1 -11 -8 -14
-12 -5 -43 -82 -50 -127 -3 -14 -8 -40 -12 -57 l-7 -33 -117 1 c-124 0 -215
-17 -321 -63 -73 -31 -182 -100 -236 -150 l-44 -41 -2 29 c-1 16 -3 45 -5 64
-2 19 -3 58 -3 85 -1 39 -3 46 -10 30 -8 -16 -9 -13 -5 15 2 19 9 71 15 115
13 102 39 257 52 315 20 87 22 280 4 360 -19 82 -92 241 -142 306 -18 23 -37
51 -44 63 -25 47 -172 196 -252 255 -175 129 -358 172 -532 127z m-455 -548
c-12 -20 -14 -14 -5 12 4 9 9 14 11 11 3 -2 0 -13 -6 -23z m-24 -75 c-3 -8 -6
-5 -6 6 -1 11 2 17 5 13 3 -3 4 -12 1 -19z m-3 -97 c-4 -17 -9 -30 -11 -27 -3
2 -2 19 2 36 9 41 17 33 9 -9z m-17 -98 c-3 -10 -5 -2 -5 17 0 19 2 27 5 18 2
-10 2 -26 0 -35z m20 -35 c-3 -8 -6 -5 -6 6 -1 11 2 17 5 13 3 -3 4 -12 1 -19z
m1360 -670 c-3 -8 -6 -5 -6 6 -1 11 2 17 5 13 3 -3 4 -12 1 -19z m759 -61 c1
-1 4 -24 8 -52 3 -27 10 -68 15 -90 6 -22 11 -57 13 -78 1 -20 5 -37 9 -37 4
0 10 -35 14 -77 4 -43 10 -87 12 -98 3 -11 5 -110 4 -219 0 -133 3 -204 10
-213 16 -18 46 -16 53 3 7 19 -2 37 -15 29 -11 -7 -10 -29 -13 215 -3 162 -8
228 -26 315 -26 132 -49 295 -41 295 3 0 40 -11 81 -24 94 -29 183 -78 265
-146 69 -57 181 -178 172 -186 -3 -3 1 -27 8 -55 7 -27 11 -58 8 -70 -4 -15 0
-22 17 -26 21 -6 22 -10 17 -67 -7 -70 -22 -127 -66 -246 -49 -133 -79 -250
-83 -323 l-3 -67 -318 0 c-238 0 -316 -3 -311 -12 5 -8 0 -9 -17 -4 -13 3
-144 9 -291 12 -198 4 -268 3 -268 -6 0 -6 3 -9 8 -7 4 3 8 -23 9 -56 l2 -62
-15 65 c-7 36 -18 76 -23 90 -6 14 -15 45 -21 70 -7 25 -18 59 -25 75 -50 113
-96 293 -94 369 1 27 3 32 6 16 6 -36 46 -160 88 -274 20 -55 44 -136 54 -180
12 -59 22 -82 34 -84 41 -8 2 151 -103 418 -46 119 -50 271 -8 353 25 47 116
163 104 133 -38 -102 -43 -153 -14 -144 14 5 46 65 48 93 5 52 0 86 -12 79 -7
-3 14 20 47 53 155 151 381 240 580 227 44 -3 81 -6 81 -7z m-749 -94 c-3 -10
-5 -2 -5 17 0 19 2 27 5 18 2 -10 2 -26 0 -35z m20 -90 c-3 -10 -5 -2 -5 17 0
19 2 27 5 18 2 -10 2 -26 0 -35z m1389 -564 c-8 -41 -37 -141 -65 -224 -28
-82 -56 -171 -62 -197 -8 -34 -17 -48 -28 -48 -15 0 -16 7 -10 58 12 91 26
151 59 247 70 202 90 272 90 316 0 72 14 68 23 -8 6 -50 4 -90 -7 -144z
m-1346 -489 c0 -5 -8 -10 -17 -10 -15 0 -16 2 -3 10 19 12 20 12 20 0z m1197
-22 c-3 -7 -5 -2 -5 12 0 14 2 19 5 13 2 -7 2 -19 0 -25z m60 -15 c-3 -10 -5
-4 -5 12 0 17 2 24 5 18 2 -7 2 -21 0 -30z m-1274 -18 c-3 -9 -8 -14 -10 -11
-3 3 -2 9 2 15 9 16 15 13 8 -4z m964 -55 c106 0 193 -3 193 -7 0 -5 -35 -7
-77 -6 -66 1 -72 0 -38 -7 22 -5 54 -9 71 -9 26 -1 33 -6 38 -27 9 -33 5 -37
-67 -59 -75 -22 -172 -34 -192 -23 -8 5 -25 6 -36 3 -19 -6 -19 -8 -4 -25 22
-25 8 -31 -68 -29 -71 2 -94 -7 -151 -58 -10 -9 -48 -12 -123 -10 l-108 2 -52
-37 c-29 -20 -65 -39 -81 -42 -15 -4 -45 -22 -66 -41 -38 -34 -39 -34 -67 -18
-16 10 -29 25 -29 35 0 13 -8 18 -27 18 l-28 0 24 -19 c29 -22 20 -41 -20 -41
-30 0 -36 13 -20 39 6 10 5 23 -2 35 -6 12 -12 53 -13 93 -1 61 -12 144 -29
227 -4 19 6 19 387 13 215 -4 478 -7 585 -7z m241 -62 l-2 -63 -3 57 c-3 43
-8 58 -21 61 -12 3 -11 5 6 6 21 1 22 -2 20 -61z m9 -170 c-3 -8 -6 -5 -6 6
-1 11 2 17 5 13 3 -3 4 -12 1 -19z m-2760 -210 c-3 -8 -6 -5 -6 6 -1 11 2 17
5 13 3 -3 4 -12 1 -19z m3260 -1160 c-2 -13 -4 -3 -4 22 0 25 2 35 4 23 2 -13
2 -33 0 -45z m430 -403 c-4 -8 -14 -14 -24 -14 -17 1 -17 2 0 6 9 2 17 12 17
20 0 9 3 14 6 10 4 -3 4 -13 1 -22z"/>
<path d="M4120 2820 c-12 -8 -9 -10 13 -10 15 0 27 5 27 10 0 13 -20 13 -40 0z"/>
<path d="M2620 4219 c-8 -4 -45 -11 -82 -14 -38 -4 -68 -11 -68 -16 0 -5 -9
-9 -21 -9 -11 0 -17 -4 -14 -10 3 -5 -1 -10 -9 -10 -9 0 -19 0 -23 0 -5 0 -8
4 -8 9 0 5 -3 12 -7 15 -5 3 -6 3 -3 -1 3 -3 0 -12 -6 -20 -9 -10 -8 -13 2
-13 10 -1 8 -5 -4 -14 -10 -8 -58 -18 -105 -22 -48 -4 -80 -9 -71 -11 27 -6
603 47 612 56 11 11 -31 41 -56 41 -10 0 -28 5 -40 12 -27 14 -77 18 -97 7z"/>
<path d="M2098 4093 c12 -2 32 -2 45 0 12 2 2 4 -23 4 -25 0 -35 -2 -22 -4z"/>
<path d="M1998 4083 c12 -2 30 -2 40 0 9 3 -1 5 -23 4 -22 0 -30 -2 -17 -4z"/>
<path d="M1893 4073 c9 -2 25 -2 35 0 9 3 1 5 -18 5 -19 0 -27 -2 -17 -5z"/>
<path d="M1688 4053 c7 -3 16 -2 19 1 4 3 -2 6 -13 5 -11 0 -14 -3 -6 -6z"/>
<path d="M1568 4043 c12 -2 30 -2 40 0 9 3 -1 5 -23 4 -22 0 -30 -2 -17 -4z"/>
<path d="M1488 4033 c7 -3 16 -2 19 1 4 3 -2 6 -13 5 -11 0 -14 -3 -6 -6z"/>
<path d="M5582 3180 c0 -14 2 -19 5 -12 2 6 2 18 0 25 -3 6 -5 1 -5 -13z"/>
<path d="M5593 3025 c0 -22 2 -30 4 -17 2 12 2 30 0 40 -3 9 -5 -1 -4 -23z"/>
<path d="M2686 3016 c-3 -12 -6 -37 -6 -58 0 -20 -6 -39 -12 -41 -7 -3 47 -6
120 -6 147 -1 139 -6 119 74 l-13 50 -80 3 c-73 2 -77 1 -49 -11 17 -8 47 -17
68 -21 20 -4 37 -10 38 -14 6 -52 7 -64 2 -49 -2 9 -14 18 -26 18 -17 1 -18 2
-4 6 32 8 17 18 -67 44 l-85 26 -5 -21z m131 -62 c-3 -3 -12 -4 -19 -1 -8 3
-5 6 6 6 11 1 17 -2 13 -5z"/>
<path d="M4396 2928 c3 -4 13 -8 22 -9 11 -1 8 -4 -8 -9 -20 -6 -13 -8 28 -9
68 -1 67 21 -1 29 -25 3 -43 2 -41 -2z"/>
<path d="M5603 2855 c0 -22 2 -30 4 -17 2 12 2 30 0 40 -3 9 -5 -1 -4 -23z"/>
<path d="M2613 2705 c0 -22 2 -30 4 -17 2 12 2 30 0 40 -3 9 -5 -1 -4 -23z"/>
<path d="M5613 2670 c0 -41 2 -58 4 -37 2 20 2 54 0 75 -2 20 -4 3 -4 -38z"/>
<path d="M5623 2455 c0 -33 2 -45 4 -27 2 18 2 45 0 60 -2 15 -4 0 -4 -33z"/>
<path d="M5601 2174 c0 -11 3 -14 6 -6 3 7 2 16 -1 19 -3 4 -6 -2 -5 -13z"/>
</g>
</svg>
